<svg
  width="140"
  height="140"
  viewBox="0 0 140 140"
  fill="none"
  xmlns="http://www.w3.org/2000/svg"
>
  <g clip-path="url(#clip0_307_772)">
    <path
      d="M118.357 84.0917L138.337 76.958L120.386 65.629L136.436 51.7538L115.613 47.682L125.577 28.9421L104.684 32.6687L107.207 11.6001L89.0849 22.6386L83.8208 2.09052L70.8925 18.9081L58.5592 1.63864L52.5922 21.9907L34.8552 10.3481L36.6411 31.4919L15.8907 27.0385L25.1842 46.1145L4.23203 49.4572L19.7984 63.8732L1.46366 74.5689L21.1816 82.3955L7.96208 98.9782L29.1701 99.1515L22.822 119.399L42.6762 111.902L44.0679 133.071L59.8597 118.907L68.8113 138.141L78.4287 119.231L93.7275 133.938L95.8572 112.83L115.427 121.015L109.789 100.559L131.001 101.126L118.357 84.0917ZM69.1973 116.653C43.4325 116.203 22.9096 94.951 23.3594 69.1862C23.8091 43.4213 45.0611 22.8985 70.826 23.3482C96.5799 23.7978 117.103 45.0498 116.653 70.8146C116.203 96.5794 94.9514 117.091 69.1973 116.653Z"
      fill="#FCC21B"
    />
    <path
      d="M68.7912 139.279C68.3538 139.271 67.9645 139.013 67.7745 138.615L59.4768 120.771L44.8298 133.905C44.5073 134.206 44.0465 134.285 43.6447 134.114C43.2318 133.954 42.9651 133.566 42.929 133.128L41.6418 113.491L23.2301 120.445C22.8227 120.602 22.3649 120.506 22.042 120.205C21.719 119.904 21.6066 119.454 21.7343 119.029L27.619 100.262L7.95274 100.126L7.9418 100.126C7.50437 100.119 7.11488 99.8712 6.9249 99.4741C6.73493 99.0769 6.78688 98.6075 7.06619 98.2732L19.3241 82.8879L1.05121 75.6226C0.649257 75.4625 0.360479 75.0855 0.335307 74.6475C0.299199 74.2093 0.52517 73.7975 0.900997 73.5744L17.8984 63.6648L3.46252 50.2858C3.15053 49.985 3.01619 49.5342 3.14393 49.1098C3.27167 48.6854 3.62696 48.3853 4.05479 48.3162L23.4821 45.2204L14.8644 27.5345C14.6635 27.1372 14.7262 26.6788 14.9948 26.3335C15.2634 25.9881 15.7148 25.8209 16.1286 25.9266L35.3751 30.0585L33.7155 10.4484C33.6794 10.0102 33.9054 9.59844 34.2703 9.37509C34.657 9.15212 35.1273 9.16033 35.4841 9.39628L51.9341 20.196L57.4706 1.32408C57.5872 0.910424 57.9538 0.588648 58.3816 0.519542C58.8315 0.439882 59.244 0.622109 59.5004 0.976637L70.9259 16.9832L82.914 1.38532C83.1826 1.03996 83.634 0.87281 84.048 0.967551C84.4732 1.05155 84.8176 1.37479 84.9304 1.80339L89.8049 20.857L106.622 10.638C106.998 10.4039 107.468 10.423 107.836 10.6592C108.203 10.8953 108.404 11.3254 108.353 11.7512L106.01 31.2914L125.378 27.8336C125.806 27.7426 126.24 27.9361 126.497 28.2797C126.753 28.6343 126.788 29.1053 126.585 29.4846L117.355 46.859L136.663 50.6309C137.088 50.7149 137.432 51.0381 137.556 51.456C137.669 51.8736 137.53 52.3306 137.197 52.6202L122.303 65.4872L138.955 75.9841C139.323 76.2203 139.534 76.6396 139.483 77.0763C139.442 77.5132 139.152 77.88 138.733 78.0259L120.207 84.6379L131.932 100.442C132.188 100.796 132.235 101.268 132.02 101.647C131.828 102.026 131.418 102.271 130.992 102.263L130.981 102.263L111.311 101.734L116.455 120.376C116.572 120.564 116.645 120.784 116.64 121.025C116.629 121.659 116.106 122.164 115.483 122.153L115.428 122.152C115.286 122.15 115.145 122.115 115.003 122.068L96.8565 114.477L94.8847 134.057C94.8443 134.494 94.5535 134.86 94.1351 135.017C93.7276 135.174 93.2698 135.079 92.958 134.767L78.7673 121.13L69.8519 138.674C69.6267 139.042 69.2286 139.286 68.7912 139.279ZM59.8795 117.759C59.956 117.76 60.0215 117.772 60.0869 117.784C60.4466 117.856 60.7488 118.091 60.8962 118.422L68.8567 135.528L77.4093 118.71C77.5681 118.385 77.8783 118.161 78.2404 118.101C78.5805 118.042 78.9614 118.158 79.2196 118.403L92.8294 131.483L94.7213 112.711C94.7396 112.534 94.7992 112.363 94.8955 112.212C94.9918 112.062 95.1221 111.936 95.2758 111.845C95.4296 111.754 95.6025 111.701 95.7807 111.689C95.9589 111.677 96.1374 111.707 96.3019 111.776L113.71 119.059L108.69 100.868C108.597 100.516 108.669 100.145 108.893 99.8537C109.106 99.573 109.448 99.4149 109.809 99.4212L109.82 99.4214L128.681 99.9256L117.438 84.7646C117.213 84.4763 117.154 84.1033 117.258 83.7551C117.363 83.4068 117.63 83.1271 117.971 83.0127L135.738 76.6718L119.778 66.6027C119.475 66.4114 119.273 66.0797 119.247 65.7183C119.231 65.357 119.369 65.0094 119.646 64.7626L133.918 52.4317L115.407 48.8049C115.047 48.733 114.756 48.4982 114.597 48.1782C114.439 47.8473 114.446 47.4645 114.615 47.1503L123.483 30.4806L104.905 33.7991C104.553 33.8695 104.184 33.7536 103.925 33.5085C103.656 33.2631 103.531 32.8999 103.57 32.5396L105.812 13.8071L89.6912 23.6117C89.3708 23.792 88.9873 23.8291 88.6615 23.6922C88.4961 23.6241 88.3489 23.5184 88.2316 23.3834C88.1143 23.2484 88.0302 23.0879 87.9859 22.9146L83.2947 4.6409L71.7991 19.6019C71.3515 20.1739 70.3892 20.1571 69.9618 19.5699L58.9953 4.21675L53.6911 22.316C53.6399 22.4872 53.5495 22.6442 53.4271 22.7744C53.3048 22.9047 53.1537 23.0047 52.986 23.0665C52.8183 23.1283 52.6386 23.1503 52.4609 23.1306C52.2833 23.1109 52.1127 23.0501 51.9625 22.9531L36.1941 12.592L37.7803 31.3913C37.8068 31.7527 37.6695 32.1004 37.3917 32.3471C37.125 32.5831 36.7404 32.6858 36.4027 32.6033L17.9519 28.6385L26.2101 45.6071C26.287 45.7677 26.3254 45.9439 26.3223 46.1219C26.3192 46.2998 26.2747 46.4746 26.1923 46.6324C26.11 46.7902 25.992 46.9266 25.8478 47.0309C25.7035 47.1352 25.537 47.2044 25.3613 47.2332L6.73462 50.2117L20.5676 63.0332C20.6979 63.1561 20.7978 63.3076 20.8594 63.4757C20.921 63.6439 20.9426 63.8241 20.9225 64.002C20.9024 64.18 20.8412 64.3508 20.7437 64.501C20.6461 64.6512 20.515 64.7766 20.3606 64.8673L4.07034 74.3736L21.6047 81.3306C21.9414 81.4678 22.1991 81.7458 22.2914 82.0974C22.3838 82.4491 22.3007 82.8196 22.088 83.1003L10.3223 97.8597L29.1788 98.0138L29.1897 98.014C29.5506 98.0203 29.8867 98.1902 30.0896 98.4782C30.3031 98.7773 30.3622 99.1502 30.2577 99.4985L24.6162 117.493L42.2682 110.822C42.6095 110.697 42.9917 110.736 43.2946 110.928C43.6085 111.119 43.7887 111.451 43.8152 111.812L45.0509 130.638L59.0977 118.052C59.3198 117.858 59.5951 117.754 59.8795 117.759ZM69.1772 117.79C42.8219 117.33 21.762 95.5105 22.2109 69.1659C22.6709 42.8106 44.4902 21.7507 70.8456 22.2107C97.19 22.6705 118.261 44.4791 117.801 70.8345C117.341 97.1789 95.5217 118.25 69.1772 117.79ZM70.8057 24.4963C45.7189 24.0584 24.9453 44.1192 24.4965 69.2058C24.0586 94.2926 44.1194 115.066 69.2171 115.504C94.3039 115.942 115.067 95.8812 115.504 70.7944C115.942 45.7076 95.8925 24.9342 70.8057 24.4963Z"
      fill="#FCC21B"
    />
    <path
      d="M70.0003 110.841C92.5559 110.841 110.841 92.5559 110.841 70.0003C110.841 47.4446 92.5559 29.1597 70.0003 29.1597C47.4446 29.1597 29.1597 47.4446 29.1597 70.0003C29.1597 92.5559 47.4446 110.841 70.0003 110.841Z"
      fill="#FCC21B"
    />
    <g filter="url(#filter0_f_307_772)">
      <circle cx="70" cy="71" r="20" fill="white" />
    </g>
    <path
      fill-rule="evenodd"
      clip-rule="evenodd"
      d="M34.3774 52.2473C34.8826 52.7505 37.4048 54.2621 37.908 55.7737C38.4132 57.2832 39.4238 65.8454 42.4512 68.3655C45.5733 70.9592 57.3504 69.995 59.6051 68.8707C64.6515 66.3549 65.2705 59.3317 66.1631 55.7737C66.6663 53.7589 69.6937 53.7589 69.6937 53.7589C69.6937 53.7589 72.7211 53.7589 73.2264 55.7716C74.119 59.3317 74.7422 66.3549 79.7844 68.8686C82.0413 69.995 93.8183 70.9613 96.9446 68.3676C99.9679 65.8475 100.976 57.2853 101.482 55.7737C101.983 54.2642 104.509 52.7526 105.012 52.2494C105.52 51.7463 105.52 49.7315 105.012 49.2262C104.004 48.2199 92.0983 47.3231 79.2791 48.7231C76.7212 49.0031 75.7485 49.7294 69.6916 49.7294C63.6389 49.7294 62.662 49.001 60.1062 48.7231C47.2955 47.3209 35.3879 48.2178 34.3774 49.2241C33.8742 49.7273 33.8742 51.7442 34.3774 52.2473Z"
      fill="#2D3132"
    />
  </g>
  <defs>
    <filter
      id="filter0_f_307_772"
      x="16"
      y="17"
      width="108"
      height="108"
      filterUnits="userSpaceOnUse"
      color-interpolation-filters="sRGB"
    >
      <feFlood flood-opacity="0" result="BackgroundImageFix" />
      <feBlend
        mode="normal"
        in="SourceGraphic"
        in2="BackgroundImageFix"
        result="shape"
      />
      <feGaussianBlur
        stdDeviation="17"
        result="effect1_foregroundBlur_307_772"
      />
    </filter>
    <clipPath id="clip0_307_772">
      <rect width="140" height="140" fill="white" />
    </clipPath>
  </defs>
</svg>
